<?xml version="1.0" encoding="UTF-8"?>
<!DOCTYPE svg PUBLIC "-//W3C//DTD SVG 1.1//EN" "http://www.w3.org/Graphics/SVG/1.1/DTD/svg11.dtd">
<svg xmlns="http://www.w3.org/2000/svg" version="1.1" width="73px" height="131px" style="shape-rendering:geometricPrecision; text-rendering:geometricPrecision; image-rendering:optimizeQuality; fill-rule:evenodd; clip-rule:evenodd" xmlns:xlink="http://www.w3.org/1999/xlink">
<g><path style="opacity:0.793" fill="#282e3a" d="M 50.5,-0.5 C 52.1667,-0.5 53.8333,-0.5 55.5,-0.5C 74.9557,17.5712 75.2891,36.0712 56.5,55C 54.6547,56.128 52.6547,56.628 50.5,56.5C 50.3433,55.1266 50.51,53.7932 51,52.5C 63.6596,36.1144 63.6596,19.7811 51,3.5C 50.51,2.20677 50.3433,0.873441 50.5,-0.5 Z"/></g>
<g><path style="opacity:0.783" fill="#282f3a" d="M 39.5,5.5 C 46.6102,7.10126 51.4436,11.4346 54,18.5C 57.8599,31.2551 54.3599,41.4217 43.5,49C 42.2068,49.49 40.8734,49.6567 39.5,49.5C 39.3433,48.1266 39.51,46.7932 40,45.5C 48.6667,33.5 48.6667,21.5 40,9.5C 39.51,8.20677 39.3433,6.87344 39.5,5.5 Z"/></g>
<g><path style="opacity:0.889" fill="#282f3a" d="M -0.5,110.5 C -0.5,107.5 -0.5,104.5 -0.5,101.5C 1.5,101.5 3.5,101.5 5.5,101.5C 6.85404,84.1891 7.85404,66.8557 8.5,49.5C 6.41764,49.528 4.5843,48.8613 3,47.5C 2.32778,43.7787 1.16111,40.4454 -0.5,37.5C -0.5,34.1667 -0.5,30.8333 -0.5,27.5C 0.675044,27.719 1.67504,27.3857 2.5,26.5C 1.86409,24.22 0.864091,22.22 -0.5,20.5C -0.5,17.8333 -0.5,15.1667 -0.5,12.5C 0.596413,10.8968 1.92975,9.39683 3.5,8C 13.8333,7.33333 24.1667,7.33333 34.5,8C 37.3786,9.88456 39.0452,12.5512 39.5,16C 38.4037,19.1228 37.4037,22.2894 36.5,25.5C 39.3546,28.5826 40.1879,32.2492 39,36.5C 36.9077,39.3734 35.9077,42.7068 36,46.5C 34.7365,48.607 32.9032,49.607 30.5,49.5C 31.1682,66.858 32.1682,84.1914 33.5,101.5C 36.1194,101.232 38.6194,101.565 41,102.5C 41.4974,105.146 41.6641,107.813 41.5,110.5C 27.5,110.5 13.5,110.5 -0.5,110.5 Z M 3.5,16.5 C 9.92714,14.7618 12.5938,17.0951 11.5,23.5C 9.5,23.5 7.5,23.5 5.5,23.5C 5.12184,21.079 4.45517,18.7457 3.5,16.5 Z M 15.5,16.5 C 18.1667,16.5 20.8333,16.5 23.5,16.5C 24.2202,22.638 21.7202,24.638 16,22.5C 15.5045,20.5273 15.3379,18.5273 15.5,16.5 Z M 27.5,16.5 C 33.935,15.3644 35.6017,17.3644 32.5,22.5C 30.5787,23.641 28.5787,23.8077 26.5,23C 27.4231,20.9592 27.7564,18.7925 27.5,16.5 Z"/></g>
<g><path style="opacity:0.059" fill="#223332" d="M 63.5,55.5 C 64.8333,56.1667 64.8333,56.1667 63.5,55.5 Z"/></g>
</svg>
